<svg xmlns="http://www.w3.org/2000/svg" width="1200" height="650" viewBox="0 0 1200 650" role="img" aria-label="AI Canvas — one scene, multiple representations">
<title>AI Canvas — one scene, multiple representations</title><defs><linearGradient id="trace"><stop stop-color="#376BFF"/><stop offset=".58" stop-color="#9276FF"/><stop offset="1" stop-color="#EAD9B8"/></linearGradient><pattern id="grid" width="32" height="32" patternUnits="userSpaceOnUse"><path d="M32 0H0V32" fill="none" stroke="#D5DEEA" stroke-width=".6"/></pattern></defs>
<g font-family="Segoe UI, Arial, sans-serif"><rect x="0" y="0" width="1200" height="650" rx="0" fill="#F5F7FA" stroke="#F5F7FA"/><rect x="618" width="582" height="650" fill="url(#grid)"/><text x="48" y="52" font-size="17" fill="#376BFF" letter-spacing="2">AI CANVAS / CREATIVE SYSTEM</text><text x="48" y="183" font-size="124" fill="#172033" font-weight="700" letter-spacing="-7">AI</text><text x="42" y="293" font-size="111" fill="#172033" font-weight="700" letter-spacing="-7">CANVAS</text><text x="50" y="355" font-size="36" fill="#172033" >The canvas is</text><text x="50" y="401" font-size="36" fill="#172033" >the context.</text><path d="M50 438 L550 438" fill="none" stroke="#C8D2E1" /><text x="50" y="479" font-size="23" fill="#172033" >Intent becomes structure.</text><text x="50" y="515" font-size="23" fill="#172033" >Every change has a next move.</text><text x="50" y="602" font-size="16" fill="#376BFF" font-family="Consolas, monospace">SCENE  /  AGENT  /  COMPILER  /  JOBS</text><rect x="716" y="71" width="420" height="370" rx="12" fill="#E9EEF5" stroke="#BFCBDC"/><text x="740" y="108" font-size="16" fill="#376BFF" font-family="Consolas, monospace">SEMANTICS</text><text x="740" y="148" font-size="20" fill="#172033" >role: subject</text><text x="740" y="182" font-size="20" fill="#172033" >reference: include</text><rect x="674" y="202" width="420" height="300" rx="12" fill="#F9FAFD" stroke="#BAC8DE"/><text x="700" y="238" font-size="16" fill="#376BFF" font-family="Consolas, monospace">GEOMETRY</text><path d="M704 272H1066M704 312H1066M704 352H1066M752 258V477M852 258V477M952 258V477" stroke="#D8E0EC" stroke-dasharray="4 7" fill="none"/><rect x="787" y="269" width="146" height="184" rx="0" fill="none" stroke="#9276FF"/><rect x="632" y="354" width="420" height="208" rx="12" fill="white" stroke="#B4C3D9"/><text x="654" y="386" font-size="16" fill="#376BFF" font-family="Consolas, monospace">EDITABLE SCENE</text><text x="657" y="437" font-size="43" fill="#172033" font-weight="600" letter-spacing="5">FORM</text><text x="660" y="472" font-size="19" fill="#172033" >Light. Space. Intent.</text><ellipse cx="959" cy="512" rx="57" ry="10" fill="#E9EEF5"/><path d="M931 421H982L1000 509Q963 532 914 509Z" fill="#EAD9B8"/><path d="M936 421V402H977V421" fill="#172033"/><path d="M923 485Q958 468 993 486" fill="none" stroke="#F5F7FA" stroke-width="3"/><path d="M575 378C633 378 588 281 653 281C719 281 663 133 714 133" fill="none" stroke="url(#trace)" stroke-width="4"/><circle cx="575" cy="378" r="6" fill="#376BFF"/><circle cx="714" cy="133" r="6" fill="#9276FF"/><text x="673" y="602" font-size="15" fill="#172033" font-family="Consolas, monospace">ONE SCENE. MULTIPLE REPRESENTATIONS.</text><text x="1024" y="630" font-size="11" fill="#59677D" >CONCEPT DIAGRAM</text></g></svg>